<?xml version="1.0" standalone="no"?>
<!DOCTYPE svg PUBLIC "-//W3C//DTD SVG 1.1//EN" "http://www.w3.org/Graphics/SVG/1.1/DTD/svg11.dtd" >
<svg xmlns="http://www.w3.org/2000/svg" xmlns:xlink="http://www.w3.org/1999/xlink" version="1.1">
<metadata>
Created by FontForge 20141231 at Wed Aug 26 13:52:41 2015


</metadata>
<defs>
<font id="iconfont" horiz-adv-x="500" >
  <font-face 
    font-family="iconfont"
    font-weight="400"
    font-stretch="normal"
    units-per-em="500"
    panose-1="2 0 5 3 0 0 0 0 0 0"
    ascent="500"
    descent="0"
    bbox="0 0 500 500"
    underline-thickness="0"
    underline-position="5"
    unicode-range="U+EA01-EA49"
  />
    <missing-glyph />
    <glyph glyph-name=".notdef" horiz-adv-x="0" 
 />
    <glyph glyph-name="arrow-down" unicode="&#xea01;" 
d="M241 128v0q-8 10 0 20l98 98q10 8 19 0v0q9 -10 0 -20l-98 -98q-4 -4 -9.5 -4t-9.5 4zM241 128zM241 128l-99 98q-8 10 0 20v0q10 8 20 0l98 -98q8 -10 0 -20v0q-4 -4 -9.5 -4t-9.5 4zM241 128zM251 139v0q-6 0 -10 4t-4 10v208q0 6 4 10t10 4v0q6 0 9.5 -4t4.5 -10v-208
q-1 -6 -4.5 -10t-9.5 -4zM251 139z" />
    <glyph glyph-name="arrow-left-down" unicode="&#xea02;" 
d="M194 161v0q-5 -4 -10 0l-64 64q-4 5 0 10v0q5 4 10 0l64 -64q4 -5 0 -10zM194 161zM184 161v0q-4 5 0 10l64 64q5 4 10 0v0q4 -5 0 -10l-64 -64q-5 -4 -10 0zM184 161zM376 306q-1 6 -7 7h-125q-26 -1 -43.5 -18.5t-18.5 -44.5v-81h14v81q0 21 14 34.5t34 14.5h125
q6 0 7 7zM376 306z" />
    <glyph glyph-name="arrow-left-up" unicode="&#xea03;" 
d="M194 338v0q-5 4 -10 0l-64 -64q-4 -5 0 -9v0q5 -5 10 0l64 63q4 5 0 10zM194 338zM184 338v0q-4 -5 0 -10l64 -63q5 -5 10 0v0q4 4 0 9l-64 64q-5 4 -10 0zM184 338zM376 194q-1 -6 -7 -7h-125q-26 0 -43.5 18t-18.5 44v81h14v-81q0 -21 14 -34.5t34 -13.5h125q6 -1 7 -7
zM376 194z" />
    <glyph glyph-name="arrow-left" unicode="&#xea04;" 
d="M129 260v0q10 8 20 0l98 -98q8 -10 0 -20v0q-10 -8 -20 0l-98 98q-4 4 -4 9.5t4 10.5zM129 260zM129 260l98 98q10 8 20 0v0q8 -10 0 -20l-98 -98q-10 -9 -20 0v0q-4 4 -4 9.5t4 10.5zM129 260zM140 250v0q0 6 4 10t9 4h209q6 0 10 -4t4 -10v0q0 -6 -4 -10t-10 -4h-209
q-5 0 -9 4t-4 10zM140 250z" />
    <glyph glyph-name="arrow-right-down" unicode="&#xea05;" 
d="M300 161v0q5 -4 10 0l64 64q4 5 0 10v0q-5 4 -10 0l-64 -64q-4 -5 0 -10zM300 161zM310 161v0q4 5 0 10l-64 64q-5 4 -10 0v0q-4 -5 0 -10l64 -64q5 -4 10 0zM310 161zM118 306q0 6 7 7h124q27 -1 44.5 -18.5t18.5 -44.5v-81h-14v81q-1 21 -14.5 34.5t-34.5 14.5h-124
q-6 0 -7 7zM118 306z" />
    <glyph glyph-name="arrow-right-up" unicode="&#xea06;" 
d="M300 338v0q5 4 10 0l64 -64q4 -5 0 -9v0q-5 -5 -10 0l-64 63q-4 5 0 10zM300 338zM310 338v0q4 -5 0 -10l-64 -63q-5 -5 -10 0v0q-4 4 0 9l64 64q5 4 10 0zM310 338zM118 194q0 -6 7 -7h124q27 0 44.5 18t18.5 44v81h-14v-81q-1 -21 -14.5 -34.5t-34.5 -13.5h-124
q-6 -1 -7 -7zM118 194z" />
    <glyph glyph-name="arrow-right" unicode="&#xea07;" 
d="M372 260v0q-9 8 -19 0l-99 -99q-8 -10 0 -19v0q10 -9 20 0l98 98q4 4 4 9.5t-4 10.5zM372 260zM372 260l-98 98q-10 8 -20 0v0q-8 -10 0 -20l98 -98q10 -8 20 0v0q4 4 4 9.5t-4 10.5zM372 260zM361 250v0q0 6 -4 10t-10 4h-208q-6 0 -10 -4t-4 -10v0q0 -6 4 -10t10 -4
h208q6 0 10 4t4 10zM361 250z" />
    <glyph glyph-name="arrow-up" unicode="&#xea08;" 
d="M241 371v0q-8 -10 0 -20l98 -98q10 -8 19 0v0q9 10 0 20l-98 98q-4 4 -9.5 4t-9.5 -4zM241 371zM241 371l-99 -98q-8 -10 0 -20v0q10 -8 20 0l98 98q8 10 0 20v0q-4 4 -9.5 4t-9.5 -4zM241 371zM251 360v0q-6 0 -10 -4t-4 -9v-209q0 -6 4 -10t10 -4v0q6 0 9.5 4t4.5 10
v209q-1 5 -4.5 9t-9.5 4zM251 360z" />
    <glyph glyph-name="badge" unicode="&#xea09;" 
d="M257 258h90v-15h-90v15zM257 224h90v-15h-90v15zM354 334h-90v29h-28v-29h-90q-12 0 -20 -8t-8 -20v-125q0 -12 8 -19.5t20 -8.5h208q12 1 20 8.5t8 19.5v125q0 12 -8 20t-20 8zM368 181q0 -6 -4 -10t-10 -4h-208q-6 0 -10 4t-4 10v125q0 6 4 10t10 4h90v-12h-14v-14h56
v14h-14v12h90q6 0 10 -4t4 -10v-125zM233 202q-6 4 -16 10l-11 6l-1 8q2 3 4 7.5t2 7.5v15q0 7 -4.5 11.5t-12 4.5t-12 -4.5t-4.5 -11.5v-15q0 -3 2 -7.5t4 -7.5l-1 -8l-27 -16q-3 -2 -3 -6.5t1 -7.5h81q2 3 1.5 7.5t-3.5 6.5z" />
    <glyph glyph-name="bell" unicode="&#xea0a;" 
d="M215 146q1 -15 10.5 -25t24.5 -10t24.5 10t10.5 25h-70zM215 146zM331 249v36q-1 28 -17.5 48.5t-43.5 27.5q1 4 2 7q-1 9 -6.5 15t-14.5 6t-15 -6t-6 -15q0 -4 1 -7q-26 -7 -43 -27.5t-17 -48.5v-36q0 -24 -12.5 -41.5t-32.5 -26.5v-21h250v21q-21 9 -33 26.5t-12 41.5z
M331 249z" />
    <glyph glyph-name="bill-pay" unicode="&#xea0b;" 
d="M187 240q25 -1 41.5 -17.5t16.5 -41.5t-16.5 -42t-41.5 -17t-41.5 17t-16.5 42t16.5 41.5t41.5 17.5zM187 254q-31 -1 -51.5 -21.5t-20.5 -51.5t20.5 -52t51.5 -21t51.5 21t20.5 52t-20.5 51.5t-51.5 21.5v0zM159 151v7q10 4 12 16l-1 5h-10v8h9q-1 5 -1 10q0 9 6 14.5
t15 5.5t13 -2l-2 -10q-4 2 -10 2q-11 -1 -10 -11q0 -4 1 -9h15v-8h-14q0 -5 -1 -9.5t-6 -8.5h30v-10h-46zM181 341h69v-14h-69v14zM312 188h35v-14h-35v14zM354 375h-181q-12 0 -19.5 -8t-8.5 -20v-88l14 6v27h42v-24q7 -1 14 -3v27h97v-29h-93q13 -5 24 -14h69v-27h-47
q4 -6 6 -14h97v-41q-1 -6 -4.5 -10t-9.5 -4h-83q-2 -8 -6 -14h89q12 0 19.5 8t8.5 20v180q-1 12 -9 20t-19 8zM368 222h-42v27h42v-27zM368 263h-42v29h42v-29zM368 306h-209v41q0 6 4 10t10 4h181q6 0 10 -4t4 -10v-41z" />
    <glyph glyph-name="briefcase" unicode="&#xea0c;" 
d="M354 333h-55v7q-1 12 -8.5 20t-19.5 8h-42q-12 0 -19.5 -8t-8.5 -20v-7h-55q-12 0 -20 -8t-8 -19v-125q0 -12 8 -20t20 -8h208q12 0 19.5 8t8.5 20v125q0 11 -8 19t-20 8zM215 340q0 6 4 10t10 4h42q6 0 10 -4t4 -10v-7h-70v7zM146 319h208q6 0 10 -4t4 -9v-30l-76 -18v6
q-1 6 -4.5 9.5t-9.5 4.5h-56q-6 -1 -10 -4.5t-4 -9.5v-6l-76 17v31q0 5 4 9t10 4zM278 264v-28h-56v28h56zM354 167h-208q-6 0 -10 4t-4 10v80l76 -18v-7q0 -6 4 -10t10 -4h56q6 0 10 4t4 10v8l76 18v-81q0 -6 -4 -10t-10 -4z" />
    <glyph glyph-name="chains" unicode="&#xea0d;" 
d="M320 285h-5q1 -7 1 -14v0h4q18 -1 29.5 -12.5t11.5 -29t-11.5 -29.5t-29.5 -12h-67q-17 0 -29 12t-12 29.5t12 29t29 12.5h21v0q0 7 -2 14h-18q-23 -1 -39 -16.5t-16 -39t16 -39.5t39 -16h67q23 0 39 16t16 39.5t-16 39t-40 16.5zM320 285zM183 229h-2q-18 1 -30 12.5
t-12 29t12 29.5t30 13h66q17 -1 29 -13t12 -29.5t-12 -29t-29 -12.5h-21v0q0 -7 2 -14h18q23 1 39 16.5t16 39.5v0q0 23 -16 39t-39 16h-65q-24 0 -39.5 -16t-16.5 -39v0q1 -24 16.5 -39.5t39.5 -16.5h3q-1 7 -1 14v0zM183 229z" />
    <glyph glyph-name="chevron-down-circled-outlined" unicode="&#xea0e;" 
d="M250 397q62 -1 104 -43t43 -104q-1 -62 -43 -104t-104 -43q-62 1 -104 43t-43 104q1 62 43 104t104 43zM250 417q-71 -2 -118 -49t-49 -118q2 -71 49 -118t118 -49q71 2 118 49t49 118q-2 71 -49 118t-118 49v0zM250 417zM242 185v0q-7 8 0 16l86 87q7 6 16 0v0
q6 -8 0 -16l-87 -87q-8 -7 -15 0zM242 185zM242 185l-86 87q-7 7 0 16v0q7 6 16 0l85 -87q6 -8 0 -16v0q-8 -7 -15 0zM242 185z" />
    <glyph glyph-name="chevron-down-circled" unicode="&#xea0f;" 
d="M250 417q-71 -2 -118 -49t-49 -118q2 -71 49 -118t118 -49q71 2 118 49t49 118q-2 71 -49 118t-118 49zM343 272l-86 -87q-8 -6 -16 0l-85 87q-7 7 0 16q7 6 16 0l78 -79l78 79q8 6 16 0q6 -9 -1 -16zM343 272z" />
    <glyph glyph-name="chevron-down" unicode="&#xea10;" 
d="M240 174v0q-8 9 0 19l109 108q9 9 19 0v0q8 -9 0 -19l-108 -108q-10 -9 -20 0zM240 174zM240 174l-108 108q-8 10 0 19v0q10 9 19 0l109 -108q8 -10 0 -19v0q-10 -9 -20 0zM240 174z" />
    <glyph glyph-name="chevron-left-circled-outlined" unicode="&#xea11;" 
d="M250 397q62 -1 104 -43t43 -104q-1 -62 -43 -104t-104 -43q-62 1 -104 43t-43 104q1 62 43 104t104 43zM250 417q-71 -2 -118 -49t-49 -118q2 -71 49 -118t118 -49q71 2 118 49t49 118q-2 71 -49 118t-118 49v0zM250 417zM184 258v0q7 6 16 0l86 -86q6 -8 0 -16v0
q-7 -7 -16 0l-86 86q-6 8 0 16zM184 258zM184 258l86 86q8 6 16 0v0q6 -8 0 -16l-86 -86q-7 -6 -16 0v0q-6 8 0 16zM184 258z" />
    <glyph glyph-name="chevron-left-circled" unicode="&#xea12;" 
d="M250 417q-71 -2 -118 -49t-49 -118q2 -71 49 -118t118 -49q71 2 118 49t49 118q-2 71 -49 118t-118 49zM286 172q6 -8 0 -16q-7 -7 -16 0l-86 86q-6 8 0 16l86 86q8 7 16 0q6 -7 0 -16l-78 -78zM286 172z" />
    <glyph glyph-name="chevron-left" unicode="&#xea13;" 
d="M170 260v0q10 8 20 0l108 -109q8 -9 0 -19v0q-10 -8 -20 0l-108 108q-8 10 0 20zM170 260zM170 260l108 108q10 8 20 0v0q8 -10 0 -19l-108 -109q-9 -8 -19 0v0q-9 10 -1 20zM170 260z" />
    <glyph glyph-name="chevron-right-circled-outlined" unicode="&#xea14;" 
d="M250 397q62 -1 104 -43t43 -104q-1 -62 -43 -104t-104 -43q-62 1 -104 43t-43 104q1 62 43 104t104 43zM250 417q-71 -2 -118 -49t-49 -118q2 -71 49 -118t118 -49q71 2 118 49t49 118q-2 71 -49 118t-118 49v0zM250 417zM315 242v0q-8 -6 -16 0l-86 86q-6 8 0 16v0
q8 7 16 0l86 -86q7 -8 0 -16zM315 242zM315 242l-87 -86q-7 -6 -15 0v0q-7 8 0 16l86 86q7 7 16 0v0q7 -8 0 -16zM315 242z" />
    <glyph glyph-name="chevron-right-circled" unicode="&#xea15;" 
d="M250 417q-71 -2 -118 -49t-49 -118q2 -71 49 -118t118 -49q71 2 118 49t49 118q-2 71 -49 118t-118 49zM315 242l-87 -86q-7 -6 -15 0q-7 8 0 16l78 78l-78 78q-6 8 0 16q8 7 16 0l86 -86q7 -8 0 -16zM315 242z" />
    <glyph glyph-name="chevron-right" unicode="&#xea16;" 
d="M330 242v0q-10 -9 -20 0l-108 107q-8 10 0 20v0q10 8 20 0l108 -109q4 -3 4 -8.5t-4 -9.5zM330 242zM330 242l-108 -109q-10 -8 -20 0v0q-8 10 0 20l108 108q10 8 20 0v0q8 -10 0 -19zM330 242z" />
    <glyph glyph-name="chevron-up-circled-outlined" unicode="&#xea17;" 
d="M250 397q62 -1 104 -43t43 -104q-1 -62 -43 -104t-104 -43q-62 1 -104 43t-43 104q1 62 43 104t104 43zM250 417q-71 -2 -118 -49t-49 -118q2 -71 49 -118t118 -49q71 2 118 49t49 118q-2 71 -49 118t-118 49v0zM250 417zM257 310v0q6 -7 0 -16l-86 -85q-8 -6 -16 0v0
q-6 7 0 16l86 86q8 7 16 -1zM257 310zM257 310l86 -86q6 -7 0 -16v0q-7 -6 -16 0l-85 87q-7 8 0 16v0q7 7 15 -1zM257 310z" />
    <glyph glyph-name="chevron-up-circled" unicode="&#xea18;" 
d="M250 417q-71 -2 -118 -49t-49 -118q2 -71 49 -118t118 -49q71 2 118 49t49 118q-2 71 -49 118t-118 49zM343 209q-7 -6 -16 0l-78 79l-78 -79q-8 -6 -16 0q-6 7 0 16l86 86q7 6 16 0l86 -86q7 -9 0 -16zM343 209z" />
    <glyph glyph-name="chevron-up" unicode="&#xea19;" 
d="M260 326v0q8 -9 0 -19l-108 -108q-10 -9 -19 0v0q-9 9 0 19l107 108q10 9 20 0zM260 326zM260 326l108 -108q8 -10 0 -19v0q-10 -9 -19 0l-109 107q-8 10 0 20v0q10 9 20 0zM260 326z" />
    <glyph glyph-name="circle-outlined-thick" unicode="&#xea1a;" 
d="M250 417q-71 -2 -118 -49t-49 -118q2 -71 49 -118t118 -49q71 2 118 49t49 118q-2 71 -49 118t-118 49zM250 108q-60 1 -100.5 41.5t-41.5 100.5q1 60 41.5 100.5t100.5 41.5q60 -1 100.5 -41.5t41.5 -100.5q-1 -60 -41.5 -100.5t-100.5 -41.5zM250 108z" />
    <glyph glyph-name="circle-outlined-thicker" unicode="&#xea1b;" 
d="M250 389q59 -2 98 -41t41 -98q-2 -59 -41 -98t-98 -41q-59 2 -98 41t-41 98q2 59 41 98t98 41zM250 417q-71 -2 -118 -49t-49 -118q2 -71 49 -118t118 -49q71 2 118 49t49 118q-2 71 -49 118t-118 49v0zM250 417z" />
    <glyph glyph-name="circle-outlined" unicode="&#xea1c;" 
d="M250 397q62 -1 104 -43t43 -104q-1 -62 -43 -104t-104 -43q-62 1 -104 43t-43 104q1 62 43 104t104 43zM250 417q-71 -2 -118 -49t-49 -118q2 -71 49 -118t118 -49q71 2 118 49t49 118q-2 71 -49 118t-118 49v0zM250 417z" />
    <glyph glyph-name="circle-small" unicode="&#xea1d;" 
d="M250 417q-71 -2 -118 -49t-49 -118q2 -71 49 -118t118 -49q71 2 118 49t49 118q-2 71 -49 118t-118 49v0z" />
    <glyph glyph-name="circle" unicode="&#xea1e;" 
d="M500 250q-3 -106 -73.5 -176.5t-176.5 -73.5q-106 3 -176.5 73.5t-73.5 176.5q3 106 73.5 176.5t176.5 73.5q106 -3 176.5 -73.5t73.5 -176.5zM500 250z" />
    <glyph glyph-name="cloud-arrow-down" unicode="&#xea1f;" 
d="M294 172q-5 4 -10 0l-27 -28v108q-1 7 -7 7t-7 -7v-108l-27 28q-5 4 -9.5 -0.5t-0.5 -9.5l39 -39q2 -3 5 -2.5t5 2.5l39 39q4 5 0 10zM330 305q-8 26 -29 41.5t-48.5 15.5t-48 -15.5t-28.5 -40.5q-22 -2 -36 -16.5t-14 -36t14.5 -36.5t37.5 -15h45v14h-45
q-17 0 -27.5 10.5t-10.5 27t10 27t26 11.5h10l3 10q7 21 24 33.5t39.5 12.5t40 -12.5t24.5 -34.5l2 -8l9 -1q15 -3 24 -13.5t9 -26t-10.5 -26t-27.5 -10.5h-45v-14h45q23 0 37.5 15t14.5 36t-12.5 35t-32.5 17z" />
    <glyph glyph-name="cloud-arrow-up" unicode="&#xea20;" 
d="M293 242l-39 39q-2 2 -5 2t-5 -2l-39 -39q-4 -5 0.5 -9.5t9.5 -0.5l27 28v-109q1 -6 7 -6t7 6v109l27 -28q5 -4 10 0v0q4 5 0 10zM329 292q-8 25 -29 41t-48.5 16t-48 -16t-28.5 -41q-22 -1 -36 -15.5t-14 -36.5t14.5 -36.5t36.5 -15.5h46v14h-46q-16 0 -26.5 11
t-10.5 27t10 26.5t26 11.5l10 1l3 9q7 22 24 34.5t39.5 12.5t40 -13t24.5 -34l2 -9l9 -1q15 -2 24 -12.5t9 -26t-10.5 -26.5t-27.5 -11h-45v-14h45q22 1 37 15.5t15 36t-13 35.5t-32 17z" />
    <glyph glyph-name="cross-circled-outlined-thick" unicode="&#xea21;" 
d="M250 417q-71 -2 -118 -49t-49 -118q2 -71 49 -118t118 -49q71 2 118 49t49 118q-2 71 -49 118t-118 49zM250 108q-60 1 -100.5 41.5t-41.5 100.5q1 60 41.5 100.5t100.5 41.5q60 -1 100.5 -41.5t41.5 -100.5q-1 -60 -41.5 -100.5t-100.5 -41.5zM250 108zM267 250l48 47
q7 9 -1 17t-17 1l-47 -48l-47 48q-9 7 -17 -1t-1 -17l48 -47l-48 -47q-7 -9 0 -18q4 -3 9 -3t9 3l48 48l48 -48q3 -3 8.5 -3t9.5 3q7 9 0 18zM267 250z" />
    <glyph glyph-name="cross-circled-outlined-thicker" unicode="&#xea22;" 
d="M294 186l-108 108q-8 10 0 20v0q10 8 20 0l108 -108q8 -10 0 -20v0q-5 -4 -10.5 -4t-9.5 4zM294 186zM186 206l108 108q10 8 20 0v0q8 -10 0 -20l-108 -108q-10 -8 -20 0v0q-4 5 -4 10.5t4 9.5zM186 206zM250 389q59 -2 98 -41t41 -98q-2 -59 -41 -98t-98 -41
q-59 2 -98 41t-41 98q2 59 41 98t98 41zM250 417q-71 -2 -118 -49t-49 -118q2 -71 49 -118t118 -49q71 2 118 49t49 118q-2 71 -49 118t-118 49v0zM250 417z" />
    <glyph glyph-name="cross-circled-outlined" unicode="&#xea23;" 
d="M250 397q62 -1 104 -43t43 -104q-1 -62 -43 -104t-104 -43q-62 1 -104 43t-43 104q1 62 43 104t104 43zM250 417q-71 -2 -118 -49t-49 -118q2 -71 49 -118t118 -49q71 2 118 49t49 118q-2 71 -49 118t-118 49v0zM250 417zM313 313v0q6 -7 0 -14l-112 -111q-7 -7 -13 0v0
q-7 6 0 13l111 112q6 5 14 0zM313 313zM188 313v0q6 6 13 0l112 -112q6 -7 0 -13v0q-7 -7 -14 0l-111 111q-6 6 0 14zM188 313z" />
    <glyph glyph-name="cross-circled-thick" unicode="&#xea24;" 
d="M250 417q-71 -2 -118 -49t-49 -118q2 -71 49 -118t118 -49q71 2 118 49t49 118q-2 71 -49 118t-118 49zM315 185q-3 -4 -8.5 -4t-9.5 4l-47 48l-47 -48q-4 -3 -9 -3t-9 3q-8 9 0 18l47 47l-47 47q-8 9 0 17t17 1l47 -48l48 48q8 7 16 -1t1 -17l-47 -47l48 -47q3 -4 3 -9
t-3 -9zM315 185z" />
    <glyph glyph-name="cross-circled-thicker" unicode="&#xea25;" 
d="M250 417q-71 -2 -118 -49t-49 -118q2 -71 49 -118t118 -49q71 2 118 49t49 118q-2 71 -49 118t-118 49zM314 206q8 -10 -1 -19t-19 -1l-44 45l-44 -45q-10 -8 -19 1t-1 19l45 44l-45 44q-8 10 1 19t19 1l44 -45l44 45q10 8 19 -1t1 -19l-45 -44zM314 206z" />
    <glyph glyph-name="cross-circled" unicode="&#xea26;" 
d="M250 417q-71 -2 -118 -49t-49 -118q2 -71 49 -118t118 -49q71 2 118 49t49 118q-2 71 -49 118t-118 49zM313 201q6 -7 -0.5 -13.5t-13.5 0.5l-49 48l-49 -48q-7 -7 -13.5 -0.5t0.5 13.5l48 49l-48 49q-7 7 -0.5 13.5t13.5 0.5l49 -49l49 49q7 6 13.5 -0.5t0.5 -13.5
l-49 -49zM313 201z" />
    <glyph glyph-name="cross" unicode="&#xea27;" 
d="M162 338v0q10 9 19 0l157 -157q9 -9 0 -19v0q-10 -9 -19 0l-157 157q-9 9 0 19zM162 338zM162 181l157 157q9 9 19 0v0q9 -10 0 -19l-157 -157q-9 -9 -19 0v0q-9 10 0 19zM162 181z" />
    <glyph glyph-name="envelope-outlined" unicode="&#xea28;" 
d="M347 326q6 0 10 -4t4 -9v-125q0 -6 -4 -10t-10 -4h-194q-6 0 -10 4t-4 10v125q0 5 4 9t10 4h194zM347 340h-194q-12 0 -20 -8t-8 -19v-125q0 -12 8 -20t20 -8h194q12 0 20 8t8 20v125q0 11 -8 19t-20 8v0zM347 340zM246 235l-111 79q-5 4 -1 10v0q4 6 10 2l111 -79
q5 -5 1 -11v0q-5 -4 -10 -1zM246 235zM255 235l110 80q6 4 2 10v0q-5 5 -11 1l-110 -79q-6 -4 -2 -10v0q5 -5 11 -2zM255 235z" />
    <glyph glyph-name="envelope" unicode="&#xea29;" 
d="M254 235l-1 -1l-1 -1q-3 -1 -6 2l-120 85q-1 -3 -1 -7v-125q0 -12 8 -20t20 -8h194q12 0 20 8t8 20v125q0 4 -1 8l-120 -86v0zM254 235zM365 333q-7 7 -18 7h-194q-11 0 -18 -7l115 -83zM365 333zM253 234h0.5t-0.5 0zM253 234z" />
    <glyph glyph-name="flag" unicode="&#xea2a;" 
d="M156 347h20v-208h-20v208zM156 347zM351 223h-160v110h160l-50 -55zM351 223z" />
    <glyph glyph-name="hand" unicode="&#xea2b;" 
d="M313 272q-1 6 -4 8t-8 2q-10 -1 -11 -10v-42h-4v114q-1 10 -11 10t-11 -10v-75h-4v89q-1 9 -11.5 9t-10.5 -9v-89h-5v75q-1 10 -11 10t-11 -10v-81h-4v43q-1 10 -11 10t-11 -9v-86q0 -26 18 -43.5t44.5 -17.5t44 17.5t18.5 43.5zM313 272z" />
    <glyph glyph-name="list" unicode="&#xea2c;" 
d="M340 354q6 0 10 -4t4 -10v-180q0 -6 -4 -10t-10 -4h-180q-6 0 -10 4t-4 10v180q0 6 4 10t10 4h180zM340 368h-180q-12 0 -20 -8t-8 -20v-180q0 -12 8 -20t20 -8h180q12 0 20 8t8 20v180q0 12 -8 20t-20 8v0zM340 368zM201 306q0 -6 -4 -10t-9.5 -4t-9.5 4t-4 9.5t4 9.5
t9.5 4t9.5 -4t4 -9zM201 306zM201 250q0 -6 -4 -10t-9.5 -4t-9.5 4t-4 10t4 10t9.5 4t9.5 -4t4 -10zM201 250zM201 194q0 -5 -4 -9t-9.5 -4t-9.5 4t-4 9.5t4 9.5t9.5 4t9.5 -4t4 -10zM201 194zM222 313h97v-15h-97v15zM222 313zM222 257h97v-15h-97v15zM222 257zM222 202h97
v-14h-97v14zM222 202z" />
    <glyph glyph-name="magnifying-glass" unicode="&#xea2d;" 
d="M299 345q-32 30 -72.5 30t-71.5 -30q-30 -31 -30 -71.5t30 -72.5q26 -25 60.5 -28.5t64.5 14.5l55 -55q7 -7 16.5 -7t16.5 7t7 16.5t-7 16.5l-55 55q18 30 14.5 64.5t-28.5 60.5zM270 230q-19 -18 -43.5 -18t-42.5 18.5t-18 43t18 42.5t42.5 18t43 -18t18.5 -42.5
t-18 -43.5zM270 230z" />
    <glyph glyph-name="minus" unicode="&#xea2e;" 
d="M139 264h222q6 0 10 -4t4 -10v0q0 -6 -4 -10t-10 -4h-222q-6 0 -10 4t-4 10v0q0 6 4 10t10 4zM139 264z" />
    <glyph glyph-name="paper-clip" unicode="&#xea2f;" 
d="M125 249q0 -21 14 -34.5t35 -13.5h118q6 0 6 6.5t-6 7.5h-118q-15 0 -25 9.5t-10 24.5t10 25t25 10h166q9 0 15 -6t6 -15t-6 -14.5t-15 -6.5h-166q-7 1 -7 7.5t7 6.5h166q7 1 7 7.5t-7 6.5h-166q-9 0 -15 -6t-6 -15t6 -14.5t15 -6.5h166q15 1 25 10.5t10 24.5t-10 25
t-25 10h-166q-21 -1 -35 -14.5t-14 -34.5zM125 249z" />
    <glyph glyph-name="payday" unicode="&#xea30;" 
d="M243 146h-42v42h40q3 21 16 38v16h17q16 13 39 17v40h41v-43h-1q8 -2 15 -6v90q0 12 -8 20t-20 8h-180q-12 0 -20 -8t-8 -20v-180q0 -12 8 -20t20 -8h90q-5 8 -7 17v-3zM243 201h-42v41h42v-41zM243 256h-42v43h42v-43zM299 256h-42v43h42v-43zM188 146h-28q-6 0 -10 4
t-4 10v28h42v-42zM188 201h-42v41h42v-41zM188 256h-42v43h42v-43zM188 313h-42v27q0 6 4 10t10 4h180q6 0 10 -4t4 -10v-27h-166zM188 313zM326 233q25 -1 42 -17.5t17 -41.5t-17 -42t-42 -17t-41.5 17t-16.5 42t16.5 41.5t41.5 17.5zM326 247q-31 -1 -51.5 -21.5
t-20.5 -51.5t20.5 -52t51.5 -21t52 21t21 52t-21 51.5t-52 21.5v0zM326 247zM301 144v7q11 5 12 16v5h-11v9h9q-1 4 -1 9q1 19 22 20q8 -1 12 -3l-2 -9q-3 2 -9 2q-11 -1 -11 -11q0 -5 2 -9h14v-8h-14q0 -5 -1 -10t-6 -9h30v-10h-46v1zM301 144z" />
    <glyph glyph-name="pencil-outlined" unicode="&#xea31;" 
d="M321 346v0q-8 6 -18 6q-14 0 -23 -11l-100 -128q-7 -13 -10 -37.5t-2 -27.5q2 1 25.5 9.5t33.5 18.5l99 129q8 10 6.5 21.5t-11.5 19.5zM215 206q-8 6 -18 10l70 90q8 -4 15.5 -9.5t13.5 -13.5l-69 -88q-5 5 -12 11zM180 164q1 14 3.5 26t5.5 16l1 1q10 -4 18 -10
q7 -5 12 -11l-2 -3q-3 -3 -13.5 -8.5t-24.5 -10.5zM318 311l-15 -19q-6 7 -13.5 13t-15.5 10l14 19q6 7 15 7q6 0 11.5 -4.5t6.5 -12t-3 -13.5z" />
    <glyph glyph-name="pencil" unicode="&#xea32;" 
d="M207 198q-14 10 -27 14q-7 -12 -10 -36.5t-2 -27.5q2 0 25.5 9t33.5 19v1q-7 10 -20 21zM214 207q12 -10 20 -21l69 89q-7 11 -20.5 21t-25.5 15l-69 -89q12 -5 26 -15zM321 346v0q-8 6 -18 6q-14 0 -23 -11l-16 -21q12 -5 25 -15t21 -21l16 21q8 10 6.5 21.5t-11.5 19.5
z" />
    <glyph glyph-name="pie-diagram" unicode="&#xea33;" 
d="M271 396v-125h125q-2 53 -37 88t-88 37zM271 396zM236 360v-110v-14h124q-5 -42 -35.5 -69.5t-74.5 -28.5q-47 1 -78.5 32.5t-32.5 78.5q1 44 28 74.5t69 36.5zM250 375q-53 -1 -88.5 -36.5t-36.5 -88.5q1 -53 36.5 -88.5t88.5 -36.5q53 1 88.5 36.5t36.5 88.5v0h-125
v125zM250 375z" />
    <glyph glyph-name="plus-circled-outlined-thick" unicode="&#xea34;" 
d="M250 417q-71 -2 -118 -49t-49 -118q2 -71 49 -118t118 -49q71 2 118 49t49 118q-2 71 -49 118t-118 49zM250 108q-60 1 -100.5 41.5t-41.5 100.5q1 60 41.5 100.5t100.5 41.5q60 -1 100.5 -41.5t41.5 -100.5q-1 -60 -41.5 -100.5t-100.5 -41.5zM250 108zM263 263v67
q-2 11 -13 11t-12 -11v-67h-68q-11 -2 -11 -13t11 -12h68v-68q1 -11 12 -12q5 0 8.5 3.5t4.5 8.5v68h67q5 0 8.5 3t3.5 9q-1 11 -12 13h-67zM263 263z" />
    <glyph glyph-name="plus-circled-outlined-thicker" unicode="&#xea35;" 
d="M326 236h-152q-6 0 -10 4t-4 10v0q0 6 4 10t10 4h152q6 0 10 -4t4 -10v0q0 -6 -4 -10t-10 -4zM326 236zM236 174v152q0 6 4 10t10 4v0q6 0 10 -4t4 -10v-152q0 -6 -4 -10t-10 -4v0q-6 0 -10 4t-4 10zM236 174zM250 389q59 -2 98 -41t41 -98q-2 -59 -41 -98t-98 -41
q-59 2 -98 41t-41 98q2 59 41 98t98 41zM250 417q-71 -2 -118 -49t-49 -118q2 -71 49 -118t118 -49q71 2 118 49t49 118q-2 71 -49 118t-118 49v0zM250 417z" />
    <glyph glyph-name="plus-circled-outlined" unicode="&#xea36;" 
d="M250 397q62 -1 104 -43t43 -104q-1 -62 -43 -104t-104 -43q-62 1 -104 43t-43 104q1 62 43 104t104 43zM250 417q-71 -2 -118 -49t-49 -118q2 -71 49 -118t118 -49q71 2 118 49t49 118q-2 71 -49 118t-118 49v0zM250 417zM250 338v0q9 -1 10 -10v-156q-1 -9 -10 -10v0
q-9 1 -10 10v156q1 9 10 10zM250 338zM172 260h156q10 -1 10 -10v0q0 -9 -10 -10h-156q-9 1 -10 10v0q1 9 10 10zM172 260z" />
    <glyph glyph-name="plus-circled-thick" unicode="&#xea37;" 
d="M250 417q-71 -2 -118 -49t-49 -118q2 -71 49 -118t118 -49q71 2 118 49t49 118q-2 71 -49 118t-118 49zM338 242q-3 -4 -9 -4h-67v-67q0 -5 -3.5 -8.5t-9.5 -4.5q-11 1 -12 13v67h-68q-11 1 -11 12.5t11 12.5h68v68q1 11 12.5 11t12.5 -11v-68h67q12 -1 13 -12
q-1 -6 -4 -9zM338 242z" />
    <glyph glyph-name="plus-circled-thicker" unicode="&#xea38;" 
d="M250 417q-71 -2 -118 -49t-49 -118q2 -71 49 -118t118 -49q71 2 118 49t49 118q-2 71 -49 118t-118 49zM326 236h-62v-62q0 -6 -4 -10t-10 -4t-10 4t-4 10v62h-62q-6 0 -10 4t-4 10t4 10t10 4h62v62q0 6 4 10t10 4t10 -4t4 -10v-62h62q6 0 10 -4t4 -10t-4 -10t-10 -4z
M326 236z" />
    <glyph glyph-name="plus-circled" unicode="&#xea39;" 
d="M250 417q-71 -2 -118 -49t-49 -118q2 -71 49 -118t118 -49q71 2 118 49t49 118q-2 71 -49 118t-118 49zM328 240h-68v-68q-1 -9 -10 -9t-10 9v68h-68q-9 1 -9 10t9 10h68v68q1 9 10 9t10 -9v-68h68q10 -1 10 -10t-10 -10zM328 240z" />
    <glyph glyph-name="plus" unicode="&#xea3a;" 
d="M250 375v0q6 0 10 -4t4 -10v-222q0 -6 -4 -10t-10 -4v0q-6 0 -10 4t-4 10v222q0 6 4 10t10 4zM250 375zM139 264h222q6 0 10 -4t4 -10v0q0 -6 -4 -10t-10 -4h-222q-6 0 -10 4t-4 10v0q0 6 4 10t10 4zM139 264z" />
    <glyph glyph-name="speech-bubble-outlined" unicode="&#xea3b;" 
d="M285 322q27 -1 45.5 -19.5t18.5 -46.5v-3q0 -16 -6.5 -29.5t-18.5 -22.5q-9 -8 -28.5 -19t-37.5 -20l9 25h-51q-27 0 -45.5 18.5t-19.5 46.5v4q1 27 19.5 45.5t45.5 19.5h69v1zM285 333h-70q-32 -1 -53.5 -22.5t-22.5 -54.5v-3q1 -33 22.5 -54.5t53.5 -22.5h35l-7 -20
q-1 -5 1.5 -7.5t4.5 -2.5t4 1q18 8 42 22t36 23q14 11 22 27t8 34v3q-1 33 -22.5 54.5t-53.5 22.5v0zM285 333z" />
    <glyph glyph-name="speech-bubble" unicode="&#xea3c;" 
d="M354 253q0 -18 -7 -32t-19.5 -23.5t-36 -23t-41.5 -21.5l10 29h-45q-29 1 -48.5 20.5t-20.5 49.5v4q1 30 20.5 50t48.5 20h70q29 0 48.5 -20t20.5 -50v-3zM354 253z" />
    <glyph glyph-name="task-list" unicode="&#xea3d;" 
d="M216 361h145v-14h-145v14zM215 333h125v-14h-125v14zM216 271h145v-13h-145v13zM215 243h125v-14h-125v14zM216 181h145v-14h-145v14zM215 153h125v-14h-125v14zM181 174v-28h-28v28h28zM181 188h-28q-6 -1 -10 -5t-4 -9v-28q0 -6 4 -10t10 -4h28q5 0 9 4t5 10v28
q-1 6 -5 9.5t-9 4.5v0zM191 373q-6 3 -10 -2l-23 -39l-13 18q-5 4 -10 1v0q-5 -4 -1 -10l20 -26l2 -1q5 -3 9 2l28 48q3 5 -2 9zM191 283q-6 3 -10 -2l-23 -39l-13 17q-5 5 -10 2v0q-5 -5 -1 -10l20 -26l2 -2q5 -2 9 3l28 48q3 5 -2 9z" />
    <glyph glyph-name="three-by-three-dots" unicode="&#xea3e;" 
d="M194 340q0 -14 -10 -24t-24.5 -10t-24.5 10t-10 24.5t10 24.5t24.5 10t24.5 -10t10 -25zM194 340zM376 340q-1 -14 -10.5 -24t-24.5 -10t-24.5 10t-9.5 24.5t9.5 24.5t24.5 10t24.5 -10t10.5 -25zM376 340zM285 340q-1 -15 -10.5 -24.5t-24.5 -9.5t-24.5 9.5t-9.5 24.5
t9.5 25t24.5 10t24.5 -10t10.5 -25zM285 340zM194 159q0 -15 -10 -24.5t-24.5 -9.5t-24.5 9.5t-10 24.5t10 24.5t24.5 9.5t24.5 -9.5t10 -24.5zM194 159zM376 159q-1 -15 -10.5 -24.5t-24.5 -9.5t-24.5 9.5t-9.5 24.5t9.5 24.5t24.5 9.5t24.5 -9.5t10.5 -24.5zM376 159z
M285 159q-1 -15 -10.5 -24.5t-24.5 -9.5t-24.5 9.5t-9.5 24.5t9.5 24.5t24.5 9.5t24.5 -9.5t10.5 -24.5zM285 159zM194 250q0 -15 -10 -24.5t-24.5 -9.5t-24.5 9.5t-10 24.5t10 24.5t24.5 9.5t24.5 -9.5t10 -24.5zM194 250zM376 250q-1 -15 -10.5 -24.5t-24.5 -9.5
t-24.5 9.5t-9.5 24.5t9.5 24.5t24.5 9.5t24.5 -9.5t10.5 -24.5zM376 250zM285 250q-1 -15 -10.5 -24.5t-24.5 -9.5t-24.5 9.5t-9.5 24.5t9.5 24.5t24.5 9.5t24.5 -9.5t10.5 -24.5zM285 250z" />
    <glyph glyph-name="three-dots-surround" unicode="&#xea3f;" 
d="M433 375h-366q-28 -1 -47 -20t-20 -49v-112q1 -29 20 -48.5t47 -20.5h368q28 1 46.5 21t18.5 51v109q-1 29 -19.5 48.5t-47.5 20.5zM389 208z" />
    <glyph glyph-name="three-dots" unicode="&#xea40;" 
d="M342 313h-184q-14 -1 -23.5 -10.5t-9.5 -24.5v-56q0 -14 9.5 -24t23.5 -10h184q14 0 23.5 10t9.5 26v54q0 14 -9.5 24t-23.5 11zM181 229q-9 0 -15 6t-6 15t6 15t15 6t14.5 -6t5.5 -15t-5.5 -15t-14.5 -6zM250 229q-9 0 -15 6t-6 15t6 15t15 6t15 -6t6 -15t-6 -15t-15 -6
zM319 229q-9 0 -14.5 6t-5.5 15t5.5 15t14.5 6t15 -6t6 -15t-6 -15t-15 -6zM319 229z" />
    <glyph glyph-name="three-stripes-menu" unicode="&#xea41;" 
d="M125 354h250v-41h-250v41zM125 354zM125 271h250v-42h-250v42zM125 271zM125 188h250v-42h-250v42zM125 188z" />
    <glyph glyph-name="tick-circled-outlined-thick" unicode="&#xea42;" 
d="M250 417q-71 -2 -118 -49t-49 -118q2 -71 49 -118t118 -49q71 2 118 49t49 118q-2 71 -49 118t-118 49zM250 108q-60 1 -100.5 41.5t-41.5 100.5q1 60 41.5 100.5t100.5 41.5q60 -1 100.5 -41.5t41.5 -100.5q-1 -60 -41.5 -100.5t-100.5 -41.5zM250 108zM313 311l-80 -96
l-47 51q-9 8 -17 0t-1 -17l56 -61q3 -4 9 -4v0q5 0 9 4l89 107q3 4 3 9t-4 8.5t-8.5 3t-8.5 -4.5zM313 311z" />
    <glyph glyph-name="tick-circled-outlined-thicker" unicode="&#xea43;" 
d="M331 296l-91 -108q-4 -4 -9.5 -4.5t-9.5 3.5v0q-4 4 -4.5 9.5t2.5 9.5l91 108q4 4 9.5 4.5t10.5 -3.5v0q4 -4 4.5 -9.5t-3.5 -9.5zM331 296zM188 265l52 -58q4 -4 4 -10t-5 -9v0q-5 -4 -10.5 -4t-9.5 5l-52 58q-3 4 -3 9.5t5 9.5v0q9 7 19 -1zM188 265zM250 389
q59 -2 98 -41t41 -98q-2 -59 -41 -98t-98 -41q-59 2 -98 41t-41 98q2 59 41 98t98 41zM250 417q-71 -2 -118 -49t-49 -118q2 -71 49 -118t118 -49q71 2 118 49t49 118q-2 71 -49 118t-118 49v0zM250 417z" />
    <glyph glyph-name="tick-circled-outlined" unicode="&#xea44;" 
d="M250 397q62 -1 104 -43t43 -104q-1 -62 -43 -104t-104 -43q-62 1 -104 43t-43 104q1 62 43 104t104 43zM250 417q-71 -2 -118 -49t-49 -118q2 -71 49 -118t118 -49q71 2 118 49t49 118q-2 71 -49 118t-118 49v0zM250 417zM164 263v0q7 5 14 -1l57 -65q6 -8 0 -14v0
q-8 -6 -14 0l-58 66q-5 7 1 14zM164 263zM222 196l100 120q7 6 14 1v0q7 -6 2 -14l-102 -120q-6 -6 -14 -1v0q-5 6 0 14zM222 196z" />
    <glyph glyph-name="tick-circled-thick" unicode="&#xea45;" 
d="M250 417q-71 -2 -118 -49t-49 -118q2 -71 49 -118t118 -49q71 2 118 49t49 118q-2 71 -49 118t-118 49zM332 295l-90 -106q-3 -4 -9 -4v0q-5 0 -9 4l-55 61q-7 9 1 16.5t17 0.5l46 -51l81 96q8 7 17 1q7 -8 1 -18zM332 295z" />
    <glyph glyph-name="tick-circled-thicker" unicode="&#xea46;" 
d="M250 417q-71 -2 -118 -49t-49 -118q2 -71 49 -118t118 -49q71 2 118 49t49 118q-2 71 -49 118t-118 49zM331 289l-91 -108l-1 -1h-1l-5 -3h-9l-1 0.5l-1 0.5l-3 2h-1l-53 59q-4 4 -4 9.5t5 9.5q11 8 19 -1l41 -46l81 95q4 4 9.5 4.5t11 -3t6.5 -9t-3 -9.5zM331 289z" />
    <glyph glyph-name="tick-circled" unicode="&#xea47;" 
d="M250 417q-71 -2 -118 -49t-49 -118q2 -71 49 -118t118 -49q71 2 118 49t49 118q-2 71 -49 118t-118 49zM337 304l-101 -121q-2 -2 -5 -2h-5q-3 0 -5 2l-58 66q-5 7 1.5 13t13.5 0l50 -57l94 112q7 6 13.5 0.5t1.5 -13.5zM337 304z" />
    <glyph glyph-name="tick" unicode="&#xea48;" 
d="M207 181l133 157q4 4 9.5 5t10.5 -3v0q4 -4 4.5 -9.5t-3.5 -10.5l-133 -157q-3 -5 -9 -5.5t-10 3.5v0q-9 9 -2 20zM207 181zM208 162l-69 79q-4 4 -4 10t5 9v0q4 4 9.5 4t9.5 -4l69 -79q3 -5 3 -10.5t-4 -9.5v0q-4 -4 -9.5 -3.5t-9.5 4.5zM208 162z" />
    <glyph glyph-name="trash-can-outlined" unicode="&#xea49;" 
d="M253 234h0.5t-0.5 0zM253 234zM285 167v0q-7 0 -7 7v118q0 6 7 7v0q6 -1 7 -7v-118q-1 -6 -7 -7zM285 167zM355 326v0q0 -7 -7 -7h-195q-6 0 -6 7v0q0 6 6 7h195q6 -1 7 -7zM355 326zM250 167v0q-7 0 -7 7v118q0 6 7 7v0q7 -1 7 -7v-118q0 -6 -7 -7zM250 167zM216 167v0
q-7 0 -7 7v118q0 6 7 7v0q7 -1 7 -7v-118q-1 -6 -7 -7zM216 167zM313 319v-160q0 -6 -4 -10t-10 -4h-97q-6 0 -10 4t-4 10v160h125zM327 333h-153v-174q1 -12 8.5 -19.5t19.5 -8.5h97q12 1 20 8.5t8 19.5v174zM327 333zM272 353q6 0 6 -6v-14h-55v14q0 6 7 6h42zM272 367
h-42q-9 0 -15 -5.5t-6 -14.5v-28h83v28q0 9 -5.5 14.5t-14.5 5.5v0zM272 367z" />
  </font>
</defs>
</svg>
